<?xml version="1.0" encoding="UTF-8" standalone="no"?>
<!-- Created with Inkscape (http://www.inkscape.org/) -->

<svg
   width="500"
   height="200"
   viewBox="0 0 132.29166 52.916667"
   version="1.1"
   id="svg5"
   inkscape:version="1.2.2 (b0a8486541, 2022-12-01)"
   sodipodi:docname="logo_15062026.svg"
   inkscape:export-filename="preliminar_4.png"
   inkscape:export-xdpi="96"
   inkscape:export-ydpi="96"
   xmlns:inkscape="http://www.inkscape.org/namespaces/inkscape"
   xmlns:sodipodi="http://sodipodi.sourceforge.net/DTD/sodipodi-0.dtd"
   xmlns="http://www.w3.org/2000/svg"
   xmlns:svg="http://www.w3.org/2000/svg"
   xmlns:rdf="http://www.w3.org/1999/02/22-rdf-syntax-ns#"
   xmlns:cc="http://creativecommons.org/ns#"
   xmlns:dc="http://purl.org/dc/elements/1.1/">
  <title
     id="title65">Vaporosas:logo</title>
  <sodipodi:namedview
     id="namedview7"
     pagecolor="#ffffff"
     bordercolor="#000000"
     borderopacity="0.25"
     inkscape:showpageshadow="2"
     inkscape:pageopacity="0"
     inkscape:pagecheckerboard="false"
     inkscape:deskcolor="#d1d1d1"
     inkscape:document-units="px"
     showgrid="true"
     showguides="true"
     inkscape:lockguides="false"
     inkscape:zoom="0.94964927"
     inkscape:cx="222.18729"
     inkscape:cy="138.47218"
     inkscape:window-width="1366"
     inkscape:window-height="711"
     inkscape:window-x="0"
     inkscape:window-y="0"
     inkscape:window-maximized="1"
     inkscape:current-layer="layer3">
    <sodipodi:guide
       position="0,52.916666"
       orientation="0,500"
       id="guide71"
       inkscape:locked="false" />
    <sodipodi:guide
       position="132.29166,52.916666"
       orientation="200,0"
       id="guide73"
       inkscape:locked="false" />
    <sodipodi:guide
       position="132.29166,0"
       orientation="0,-500"
       id="guide75"
       inkscape:locked="false" />
    <sodipodi:guide
       position="0,0"
       orientation="-200,0"
       id="guide77"
       inkscape:locked="false" />
    <sodipodi:guide
       position="66.164386,26.828995"
       orientation="1,0"
       id="guide79"
       inkscape:locked="false" />
    <sodipodi:guide
       position="21.5924,26.448562"
       orientation="0,-1"
       id="guide131"
       inkscape:locked="false" />
    <sodipodi:guide
       position="28.961094,18.989423"
       orientation="0,-1"
       id="guide6831"
       inkscape:locked="false" />
    <sodipodi:guide
       position="47.043849,19.625627"
       orientation="1,0"
       id="guide8638"
       inkscape:locked="false" />
    <sodipodi:guide
       position="37.013507,19.571168"
       orientation="1,0"
       id="guide8640"
       inkscape:locked="false" />
    <sodipodi:guide
       position="84.558626,19.204659"
       orientation="1,0"
       id="guide8642"
       inkscape:locked="false" />
    <sodipodi:guide
       position="94.449339,24.776892"
       orientation="1,0"
       id="guide8644"
       inkscape:locked="false" />
  </sodipodi:namedview>
  <defs
     id="defs2">
    <rect
       x="98.357526"
       y="54.947425"
       width="305.6097"
       height="101.25358"
       id="rect8454" />
    <rect
       x="180.54385"
       y="146.99843"
       width="257.24461"
       height="32.441721"
       id="rect5875" />
    <rect
       x="165.17783"
       y="67.591434"
       width="305.50693"
       height="81.604938"
       id="rect4933" />
    <rect
       x="165.17783"
       y="67.591434"
       width="305.50693"
       height="81.604938"
       id="rect6744" />
  </defs>
  <g
     inkscape:label="15062026"
     inkscape:groupmode="layer"
     id="layer1"
     style="display:inline">
    <rect
       style="fill:#fefefe;fill-opacity:1;stroke-width:0.264583"
       id="rect2693"
       width="132.29167"
       height="52.916664"
       x="0"
       y="-5.0000006e-07"
       sodipodi:insensitive="true" />
  </g>
  <g
     inkscape:groupmode="layer"
     id="layer2"
     inkscape:label="texto"
     style="display:inline">
    <text
       xml:space="preserve"
       transform="matrix(0.26458333,0,0,0.26458333,6.533,1.3093576)"
       id="text5873"
       style="white-space:pre;shape-inside:url(#rect5875);display:inline;fill:#000000;fill-opacity:1"
       inkscape:label="Estudio de consumos"><tspan
         x="180.54297"
         y="165.87302"
         id="tspan8764"><tspan
           style="font-size:21.3333px;font-family:monospace;-inkscape-font-specification:'monospace, Normal'"
           id="tspan8762">Estudio de consumos</tspan></tspan></text>
    <g
       aria-label="VAPOROSAS"
       transform="matrix(0.26458333,0,0,0.26458333,-13.025415,-5.6861464)"
       id="text4931"
       style="font-size:42.6667px;white-space:pre;shape-inside:url(#rect4933);display:none;fill:#5c3a21"
       inkscape:label="VAPOROSAS">
      <path
         d="m 182.55275,106.41317 h -6.22917 L 165.4694,77.058978 h 6.41667 l 6.04167,18.854181 q 0.5625,1.833335 1.54167,5.541671 l 0.4375,-1.791668 1.0625,-3.750003 6.02084,-18.854181 h 6.35417 z"
         style="font-weight:bold;font-family:'Liberation Sans';-inkscape-font-specification:'Liberation Sans, Bold';display:inline"
         id="path6746" />
      <path
         d="m 214.0736,106.41317 -2.60416,-7.500009 h -11.18751 l -2.60417,7.500009 h -6.14584 l 10.70834,-29.354192 h 7.25001 l 10.66667,29.354192 z m -8.20834,-24.833355 -0.125,0.458334 q -0.20833,0.75 -0.5,1.708334 -0.29166,0.958334 -3.58333,10.541675 h 8.4375 l -2.89583,-8.437506 -0.89584,-2.833336 z"
         style="font-weight:bold;font-family:'Liberation Sans';-inkscape-font-specification:'Liberation Sans, Bold';display:inline"
         id="path6748" />
      <path
         d="m 248.28196,86.350652 q 0,2.833335 -1.29166,5.062504 -1.29167,2.229168 -3.70834,3.458336 -2.39583,1.208334 -5.70834,1.208334 h -7.29167 v 10.333344 h -6.14584 V 77.058978 h 13.18751 q 5.27084,0 8.10418,2.437502 2.85416,2.416669 2.85416,6.854172 z m -6.1875,0.104167 q 0,-4.625004 -5.45834,-4.625004 h -6.35417 v 9.520841 h 6.52084 q 2.54167,0 3.91667,-1.250001 1.375,-1.270834 1.375,-3.645836 z"
         style="font-weight:bold;font-family:'Liberation Sans';-inkscape-font-specification:'Liberation Sans, Bold';display:inline"
         id="path6750" />
      <path
         d="m 281.13615,91.600656 q 0,4.583337 -1.8125,8.062506 -1.8125,3.479168 -5.1875,5.333338 -3.37501,1.83333 -7.87501,1.83333 -6.91667,0 -10.85417,-4.0625 -3.91667,-4.083335 -3.91667,-11.166674 0,-7.062505 3.91667,-11.020842 3.91667,-3.958336 10.89584,-3.958336 6.97917,0 10.89584,4.000003 3.9375,4.000003 3.9375,10.979175 z m -6.27084,0 q 0,-4.750004 -2.25,-7.437506 -2.25,-2.708335 -6.3125,-2.708335 -4.12501,0 -6.37501,2.687502 -2.25,2.666669 -2.25,7.458339 0,4.833337 2.29167,7.625006 2.3125,2.770838 6.29167,2.770838 4.125,0 6.35417,-2.708338 2.25,-2.708336 2.25,-7.687506 z"
         style="font-weight:bold;font-family:'Liberation Sans';-inkscape-font-specification:'Liberation Sans, Bold';display:inline"
         id="path6752" />
      <path
         d="m 305.94867,106.41317 -6.81251,-11.145845 h -7.20833 v 11.145845 h -6.14584 V 77.058978 h 14.66667 q 5.25001,0 8.10418,2.270835 2.85417,2.250002 2.85417,6.479172 0,3.083336 -1.75001,5.333337 -1.75,2.229169 -4.72917,2.937502 l 7.93751,12.333346 z M 305.2195,86.058985 q 0,-4.22917 -5.41667,-4.22917 h -7.875 v 8.666673 h 8.04167 q 2.58333,0 3.91667,-1.166667 1.33333,-1.166668 1.33333,-3.270836 z"
         style="font-weight:bold;font-family:'Liberation Sans';-inkscape-font-specification:'Liberation Sans, Bold';display:inline"
         id="path6754" />
      <path
         d="m 345.1362,91.600656 q 0,4.583337 -1.8125,8.062506 -1.8125,3.479168 -5.18751,5.333338 -3.375,1.83333 -7.875,1.83333 -6.91667,0 -10.85418,-4.0625 -3.91667,-4.083335 -3.91667,-11.166674 0,-7.062505 3.91667,-11.020842 3.91667,-3.958336 10.89584,-3.958336 6.97918,0 10.89584,4.000003 3.93751,4.000003 3.93751,10.979175 z m -6.27084,0 q 0,-4.750004 -2.25,-7.437506 -2.25,-2.708335 -6.31251,-2.708335 -4.125,0 -6.375,2.687502 -2.25,2.666669 -2.25,7.458339 0,4.833337 2.29167,7.625006 2.3125,2.770838 6.29167,2.770838 4.125,0 6.35417,-2.708338 2.25,-2.708336 2.25,-7.687506 z"
         style="font-weight:bold;font-family:'Liberation Sans';-inkscape-font-specification:'Liberation Sans, Bold';display:inline"
         id="path6756" />
      <path
         d="m 373.71956,97.954827 q 0,4.312503 -3.20834,6.604173 -3.1875,2.27083 -9.375,2.27083 -5.64584,0 -8.85418,-2 -3.20833,-2 -4.125,-6.062502 l 5.9375,-0.979167 q 0.60417,2.333339 2.35417,3.395839 1.75,1.04166 4.85417,1.04166 6.43751,0 6.43751,-3.916666 0,-1.250001 -0.75,-2.062501 -0.72917,-0.812501 -2.08334,-1.354168 -1.33333,-0.541667 -5.14584,-1.312501 -3.29166,-0.770834 -4.58333,-1.229168 -1.29167,-0.479167 -2.33334,-1.104167 -1.04166,-0.645834 -1.77083,-1.541668 -0.72917,-0.895834 -1.14584,-2.104168 -0.39583,-1.208334 -0.39583,-2.770835 0,-3.97917 2.97917,-6.083338 3,-2.125002 8.70834,-2.125002 5.45834,0 8.18751,1.708335 2.75,1.708334 3.54166,5.645837 l -5.95833,0.812501 q -0.45834,-1.895835 -1.875,-2.854169 -1.39584,-0.958334 -4.02084,-0.958334 -5.58334,0 -5.58334,3.500003 0,1.145834 0.58334,1.875001 0.60416,0.729167 1.77083,1.250001 1.16667,0.5 4.72917,1.270834 4.22917,0.895834 6.04167,1.666668 1.83334,0.750001 2.89584,1.770835 1.0625,1.000001 1.625,2.416668 0.5625,1.395835 0.5625,3.229169 z"
         style="font-weight:bold;font-family:'Liberation Sans';-inkscape-font-specification:'Liberation Sans, Bold';display:inline"
         id="path6758" />
      <path
         d="m 398.9904,106.41317 -2.60417,-7.500009 h -11.18751 l -2.60417,7.500009 h -6.14583 l 10.70834,-29.354192 h 7.25 l 10.66668,29.354192 z m -8.20834,-24.833355 -0.125,0.458334 q -0.20833,0.75 -0.5,1.708334 -0.29167,0.958334 -3.58334,10.541675 h 8.43751 l -2.89584,-8.437506 -0.89583,-2.833336 z"
         style="font-weight:bold;font-family:'Liberation Sans';-inkscape-font-specification:'Liberation Sans, Bold';display:inline"
         id="path6760" />
      <path
         d="m 432.99043,97.954827 q 0,4.312503 -3.20833,6.604173 -3.18751,2.27083 -9.37501,2.27083 -5.64584,0 -8.85417,-2 -3.20834,-2 -4.12501,-6.062502 l 5.93751,-0.979167 q 0.60416,2.333339 2.35417,3.395839 1.75,1.04166 4.85417,1.04166 6.4375,0 6.4375,-3.916666 0,-1.250001 -0.75,-2.062501 -0.72917,-0.812501 -2.08333,-1.354168 -1.33334,-0.541667 -5.14584,-1.312501 -3.29167,-0.770834 -4.58334,-1.229168 -1.29167,-0.479167 -2.33333,-1.104167 -1.04167,-0.645834 -1.77084,-1.541668 -0.72917,-0.895834 -1.14583,-2.104168 -0.39584,-1.208334 -0.39584,-2.770835 0,-3.97917 2.97917,-6.083338 3.00001,-2.125002 8.70834,-2.125002 5.45834,0 8.18751,1.708335 2.75,1.708334 3.54167,5.645837 l -5.95834,0.812501 q -0.45833,-1.895835 -1.875,-2.854169 -1.39584,-0.958334 -4.02084,-0.958334 -5.58333,0 -5.58333,3.500003 0,1.145834 0.58333,1.875001 0.60417,0.729167 1.77083,1.250001 1.16667,0.5 4.72917,1.270834 4.22917,0.895834 6.04168,1.666668 1.83333,0.750001 2.89583,1.770835 1.0625,1.000001 1.625,2.416668 0.5625,1.395835 0.5625,3.229169 z"
         style="font-weight:bold;font-family:'Liberation Sans';-inkscape-font-specification:'Liberation Sans, Bold';display:inline"
         id="path6762" />
    </g>
    <text
       xml:space="preserve"
       transform="matrix(0.26458333,0,0,0.26458333,-7.959744,-5.6861469)"
       id="text6742"
       style="font-size:42.6667px;white-space:pre;shape-inside:url(#rect6744);display:inline;fill:#5c3a21;fill-opacity:1"
       inkscape:label="copia VAPOROSAS"><tspan
         x="165.17773"
         y="106.41317"
         id="tspan8768"><tspan
           style="font-weight:bold;font-family:monospace;-inkscape-font-specification:'monospace, Bold';display:inline"
           id="tspan8766">VAPOROSAS</tspan></tspan></text>
  </g>
  <g
     inkscape:groupmode="layer"
     id="layer3"
     inkscape:label="ruedas"
     style="display:inline">
    <circle
       style="fill:none;fill-opacity:1;stroke:#5c3a21;stroke-width:0.454403;stroke-opacity:1"
       id="path6827"
       cx="37.013508"
       cy="30.754135"
       r="2.5913632" />
    <circle
       style="fill:none;fill-opacity:1;stroke:#5c3a21;stroke-width:0.454403;stroke-opacity:1"
       id="path6827-0"
       cx="-94.334946"
       cy="30.754135"
       r="2.5913632"
       transform="scale(-1,1)" />
    <circle
       style="fill:none;fill-opacity:1;stroke:#5c3a21;stroke-width:0.563323;stroke-dasharray:none;stroke-opacity:1"
       id="path6819"
       cx="47.04385"
       cy="29.317127"
       r="3.9739118" />
    <circle
       style="fill:none;fill-opacity:1;stroke:#5c3a21;stroke-width:0.563323;stroke-dasharray:none;stroke-opacity:1"
       id="path6819-7"
       cx="59.502338"
       cy="29.317127"
       r="3.9739118" />
    <circle
       style="fill:none;fill-opacity:1;stroke:#5c3a21;stroke-width:0.563323;stroke-dasharray:none;stroke-opacity:1"
       id="path6819-8"
       cx="71.960831"
       cy="29.317127"
       r="3.9739118" />
    <circle
       style="fill:none;fill-opacity:1;stroke:#5c3a21;stroke-width:0.563323;stroke-dasharray:none;stroke-opacity:1"
       id="path6819-4"
       cx="84.419319"
       cy="29.317127"
       r="3.9739118" />
    <path
       style="display:inline;fill:none;fill-opacity:1;stroke:#1a1a1a;stroke-width:0.709083;stroke-dasharray:none;stroke-opacity:1"
       d="m 24.672315,33.867612 82.947035,-0.0044"
       id="path7839" />
    <path
       style="display:inline;fill:none;fill-opacity:1;stroke:#5c3a21;stroke-width:0.60325;stroke-dasharray:none;stroke-opacity:1"
       d="M 44.695393,27.953653 H 83.251132"
       id="path7837" />
  </g>
  <metadata
     id="metadata61">
    <rdf:RDF>
      <cc:Work
         rdf:about="">
        <dc:title>Vaporosas:logo</dc:title>
        <dc:date>13-06-2026</dc:date>
        <dc:creator>
          <cc:Agent>
            <dc:title>Francisco Gabriel Murillo Roldán</dc:title>
          </cc:Agent>
        </dc:creator>
        <cc:license
           rdf:resource="http://creativecommons.org/licenses/by-nc-nd/4.0/" />
      </cc:Work>
      <cc:License
         rdf:about="http://creativecommons.org/licenses/by-nc-nd/4.0/">
        <cc:permits
           rdf:resource="http://creativecommons.org/ns#Reproduction" />
        <cc:permits
           rdf:resource="http://creativecommons.org/ns#Distribution" />
        <cc:requires
           rdf:resource="http://creativecommons.org/ns#Notice" />
        <cc:requires
           rdf:resource="http://creativecommons.org/ns#Attribution" />
        <cc:prohibits
           rdf:resource="http://creativecommons.org/ns#CommercialUse" />
      </cc:License>
    </rdf:RDF>
  </metadata>
</svg>
